<?xml version="1.0" encoding="UTF-8"?>
<svg width="24" height="24" viewBox="0 0 24 24" fill="none" xmlns="http://www.w3.org/2000/svg">
  <path d="M21.5 12C21.5 17.2467 17.2467 21.5 12 21.5C6.75329 21.5 2.5 17.2467 2.5 12C2.5 6.75329 6.75329 2.5 12 2.5C17.2467 2.5 21.5 6.75329 21.5 12Z" stroke="#10B981" stroke-width="1.5"/>
  <path d="M12 7V12L15 15" stroke="#10B981" stroke-width="1.5" stroke-linecap="round" stroke-linejoin="round"/>
  <path d="M12 22C13.6569 22 15 20.6569 15 19C15 17.3431 13.6569 16 12 16C10.3431 16 9 17.3431 9 19C9 20.6569 10.3431 22 12 22Z" fill="#10B981"/>
  <path d="M8 5.5L12 2L16 5.5" stroke="#10B981" stroke-width="1.5" stroke-linecap="round" stroke-linejoin="round"/>
</svg> 